# xmcd
# 
# Track frame offsets:
#     150
#     21008
#     36277
#     48379
#     56461
#     74412
#     90139
#     108168
#     115130
#     131592
#     140505
#     157343
#     164726
#     185384
#     197733
#     211757
# 
# Disc length: 3168
# 
# Revision: 1
# Processed by: cddbd v1.5.2PL0 Copyright (c) Steve Scherf et al.
# Submitted via: Kool Media Converter v1.1.0
# 
DISCID=df0c5e10
DTITLE=Krayzie Bone - Gemini: Good vs. Evil
DYEAR=2005
DGENRE=Rap
TTITLE0=Getchu Twisted
TTITLE1=That's That Bone
TTITLE2=Put It On Ya'll
TTITLE3=Interview
TTITLE4=Nuthin But Music
TTITLE5=All I'm Hearing
TTITLE6=Lets Live
TTITLE7=Chaos Interlude
TTITLE8=Don't Know Why
TTITLE9=Mangled
TTITLE10=Lock Down Love
TTITLE11=Interlude
TTITLE12=I Remember
TTITLE13=Hi Di Ho
TTITLE14=Murda Music
TTITLE15=Getchu Twisted (Remix) feat Bo
EXTD=
EXTT0=
EXTT1=
EXTT2=
EXTT3=
EXTT4=
EXTT5=
EXTT6=
EXTT7=
EXTT8=
EXTT9=
EXTT10=
EXTT11=
EXTT12=
EXTT13=
EXTT14=
EXTT15=
PLAYORDER=
